<?xml version="1.0" encoding="utf-8"?>
<!-- Generator: Adobe Illustrator 23.0.0, SVG Export Plug-In . SVG Version: 6.00 Build 0)  -->
<svg version="1.1" id="图层_3" xmlns="http://www.w3.org/2000/svg" xmlns:xlink="http://www.w3.org/1999/xlink" x="0px" y="0px"
	 viewBox="0 0 200 200" style="enable-background:new 0 0 200 200;" xml:space="preserve">
<style type="text/css">
	.st0{fill:#FF5941;}
	.st1{fill:#5196FF;}
</style>
<path class="st0" d="M99.8,190.5c-4.6,0-8.3-3.8-8.3-8.3v-37.5c0-4.6,3.8-8.3,8.3-8.3c4.6,0,8.3,3.8,8.3,8.3v37.5
	C108.2,186.7,104.4,190.5,99.8,190.5z"/>
<path class="st1" d="M99.8,115.5c-30,0-54.2-24.2-54.2-54.2S69.8,7.1,99.8,7.1S154,31.3,154,61.3S129.8,115.5,99.8,115.5L99.8,115.5
	z M99.8,23.8c-20.8,0-37.5,16.7-37.5,37.5S79,98.8,99.8,98.8s37.5-16.7,37.5-37.5S120.7,23.8,99.8,23.8z"/>
<path class="st1" d="M162.3,190.5h-125c-13.7,0-25-11.2-25-25c0-1.7,0-3.8,0.4-5.4c7.9-35.8,39.6-61.3,76.7-61.3h21.3
	c36.7,0,68.8,25.4,76.3,61.3c2.9,13.3-5.4,26.7-19.2,30C166.1,190.5,164,190.5,162.3,190.5L162.3,190.5z M89.4,115.5
	c-28.8,0-54.2,20-60.4,48.3c-0.8,4.6,1.7,8.8,6.3,10h127.1c4.6,0,8.3-3.3,8.3-8.3v-2.1c-6.3-27.9-31.3-47.9-60.4-47.9H89.4z"/>
</svg>
