<?xml version="1.0" encoding="utf-8"?>
<!-- Generator: Adobe Illustrator 23.0.0, SVG Export Plug-In . SVG Version: 6.00 Build 0)  -->
<svg version="1.1" id="收益_x2014__x2014_选中_1_"
	 xmlns="http://www.w3.org/2000/svg" xmlns:xlink="http://www.w3.org/1999/xlink" x="0px" y="0px" viewBox="0 0 1024 1024"
	 style="enable-background:new 0 0 1024 1024;" xml:space="preserve">
<style type="text/css">
	.st0{fill:#5498FF;}
	.st1{fill-rule:evenodd;clip-rule:evenodd;fill:#FFFFFF;}
</style>
<g id="圆角矩形_3_拷贝">
	<g>
		<path class="st0" d="M592.1,160c37.4,0,72.6,14.6,99,41c26.4,26.4,41,61.6,41,99v424.1c0,37.4-14.6,72.6-41,99
			c-26.4,26.4-61.6,41-99,41H300c-37.4,0-72.6-14.6-99-41c-26.4-26.4-41-61.6-41-99V300c0-37.4,14.6-72.6,41-99
			c26.4-26.4,61.6-41,99-41H592.1 M592.1,100H300c-110.5,0-200,89.5-200,200v424.1c0,110.5,89.5,200,200,200h292.1
			c110.5,0,200-89.5,200-200V300C792.1,189.5,702.6,100,592.1,100L592.1,100z"/>
	</g>
</g>
<g id="圆角矩形_3_拷贝_3">
	<g>
		<path class="st0" d="M724.1,297.7H300c-110.5,0-200,89.5-200,200v226.5c0,110.5,89.5,200,200,200h424.1c110.5,0,200-89.5,200-200
			V497.7C924.1,387.2,834.6,297.7,724.1,297.7z"/>
	</g>
</g>
<g id="圆角矩形_4">
	<g>
		<path class="st1" d="M742.6,528.8c-45.5,0-82.4,36.9-82.4,82.4s36.9,82.4,82.4,82.4h181.6V528.8H742.6z M775.7,644
			c-18.3,0-33.2-14.7-33.2-32.8s14.8-32.8,33.2-32.8s33.2,14.7,33.2,32.8S794,644,775.7,644z"/>
	</g>
</g>
</svg>
