<?xml version="1.0" encoding="utf-8"?>
<!-- Generator: Adobe Illustrator 23.0.0, SVG Export Plug-In . SVG Version: 6.00 Build 0)  -->
<svg version="1.1" id="基金_x2014__x2014_未选中_1_"
	 xmlns="http://www.w3.org/2000/svg" xmlns:xlink="http://www.w3.org/1999/xlink" x="0px" y="0px" viewBox="0 0 1024 1024"
	 style="enable-background:new 0 0 1024 1024;" xml:space="preserve">
<style type="text/css">
	.st0{fill:#999999;}
	.st1{fill-rule:evenodd;clip-rule:evenodd;fill:#999999;}
</style>
<g id="圆角矩形_3_拷贝">
	<g>
		<path class="st0" d="M724.1,160c37.4,0,72.6,14.6,99,41c26.4,26.4,41,61.6,41,99v424.1c0,37.4-14.6,72.6-41,99
			c-26.4,26.4-61.6,41-99,41H300c-37.4,0-72.6-14.6-99-41c-26.4-26.4-41-61.6-41-99V300c0-37.4,14.6-72.6,41-99
			c26.4-26.4,61.6-41,99-41H724.1 M724.1,100H300c-110.5,0-200,89.5-200,200v424.1c0,110.5,89.5,200,200,200h424.1
			c110.5,0,200-89.5,200-200V300C924.1,189.5,834.6,100,724.1,100L724.1,100z"/>
	</g>
</g>
<g id="圆角矩形_1_拷贝_3">
	<g>
		<path class="st1" d="M727.7,404.7c-13.1-10.2-31.9-7.9-42.1,5.2l-93.4,119.6l-134-72.6c-14.2-7.7-31.7-2.7-39.9,11
			c-0.6,0.6-1.2,1.3-1.7,2L307.1,610.2c-10.2,13.1-7.9,31.9,5.2,42.1c13.1,10.2,31.9,7.9,42.1-5.2l97.8-125.2l127.7,69.2
			c0.5,0.4,1,0.8,1.5,1.2c9.7,7.5,22.5,8.2,32.7,2.8c5.2-2.6,9.7-6.7,12.7-12.2l106.2-136.1C743.1,433.8,740.8,414.9,727.7,404.7z"
			/>
	</g>
</g>
</svg>
