<?xml version="1.0" encoding="utf-8"?>
<!-- Generator: Adobe Illustrator 23.0.0, SVG Export Plug-In . SVG Version: 6.00 Build 0)  -->
<svg version="1.1" id="首页_x2014__x2014_选中_1_"
	 xmlns="http://www.w3.org/2000/svg" xmlns:xlink="http://www.w3.org/1999/xlink" x="0px" y="0px" viewBox="0 0 1024 1024"
	 style="enable-background:new 0 0 1024 1024;" xml:space="preserve">
<style type="text/css">
	.st0{fill:#5196FF;}
	.st1{fill-rule:evenodd;clip-rule:evenodd;fill:#FFFFFF;}
</style>
<g id="圆角矩形_2_拷贝_2">
	<g>
		<path class="st0" d="M558.7,115.3c0,0-14.9-15.6-47.1-15.6c-32.2,0-46.2,15.6-46.2,15.6L123.2,379.7v388.8
			c0,85.9,69.6,155.5,155.5,155.5h466.6c85.9,0,155.5-69.6,155.5-155.5V379.7L558.7,115.3z"/>
	</g>
</g>
<g id="椭圆_2_拷贝_2">
	<g>
		<path class="st1" d="M668,567c-16.6,0-30,13.4-30,30c0,69.6-56.4,126-126,126s-126-56.4-126-126c0-16.6-13.4-30-30-30
			c-16.6,0-30,13.4-30,30c0,102.7,83.3,186,186,186s186-83.3,186-186C698,580.4,684.6,567,668,567z"/>
	</g>
</g>
</svg>
