<?xml version="1.0" encoding="utf-8"?>
<!-- Generator: Adobe Illustrator 23.0.0, SVG Export Plug-In . SVG Version: 6.00 Build 0)  -->
<svg version="1.1" id="首页_x2014__x2014_未选中_1_"
	 xmlns="http://www.w3.org/2000/svg" xmlns:xlink="http://www.w3.org/1999/xlink" x="0px" y="0px" viewBox="0 0 1024 1024"
	 style="enable-background:new 0 0 1024 1024;" xml:space="preserve">
<style type="text/css">
	.st0{fill:#999999;}
</style>
<g id="圆角矩形_2_拷贝">
	<g>
		<path class="st0" d="M509.3,159.7c4.4,0,7,0.7,8.1,1.1c0.8,0.6,1.5,1.3,2.3,1.9l318.8,246.4v359.3c0,52.7-42.9,95.5-95.5,95.5
			H276.5c-52.7,0-95.5-42.8-95.5-95.5V409.1l318.8-246.4c0.9-0.7,1.9-1.5,2.7-2.3C503.6,160.2,505.8,159.7,509.3,159.7 M509.3,99.7
			c-32.2,0-46.2,15.6-46.2,15.6L121,379.6v388.8c0,85.9,69.6,155.5,155.5,155.5H743c85.9,0,155.5-69.6,155.5-155.5V379.6
			L556.4,115.3C556.4,115.3,541.5,99.7,509.3,99.7L509.3,99.7z"/>
	</g>
</g>
<g id="圆角矩形_1">
	<g>
		<path class="st0" d="M634,707H386c-16.6,0-30,13.4-30,30c0,16.6,13.4,30,30,30h248c16.6,0,30-13.4,30-30
			C664,720.4,650.6,707,634,707z"/>
	</g>
</g>
</svg>
