<?xml version="1.0" standalone="no"?><!DOCTYPE svg PUBLIC "-//W3C//DTD SVG 1.1//EN" "http://www.w3.org/Graphics/SVG/1.1/DTD/svg11.dtd"><svg t="1567673362587" class="icon" viewBox="0 0 1024 1024" version="1.1" xmlns="http://www.w3.org/2000/svg" p-id="2613" xmlns:xlink="http://www.w3.org/1999/xlink" width="200" height="200"><defs><style type="text/css"></style></defs><path d="M303.36 784.384V604.928c0-10.581333 8.533333-19.114667 19.114667-19.114667h379.136c10.581333 0 19.114667 8.533333 19.114666 19.114667v179.541333c0 13.824-11.264 25.088-25.088 25.088H328.448c-13.824 0-25.088-11.349333-25.088-25.173333z" fill="#edf4ff" p-id="2614"></path><path d="M805.376 281.344H700.586667c7.082667-15.104 11.264-31.914667 11.264-49.749333 0-64.341333-52.309333-116.650667-116.650667-116.650667-32.597333 0-62.037333 13.397333-83.2 34.986667-21.162667-21.589333-50.602667-34.986667-83.2-34.986667-64.341333 0-116.650667 52.309333-116.650667 116.650667 0 17.834667 4.096 34.56 11.264 49.749333H218.624C163.925333 281.344 119.466667 325.802667 119.466667 380.416v73.728c0 46.336 32.085333 85.248 75.178666 96.085333v224.768c0 73.813333 60.074667 133.888 133.888 133.888h367.104c73.813333 0 133.888-60.074667 133.888-133.888V550.229333c43.093333-10.837333 75.178667-49.749333 75.178667-96.085333v-73.728c-0.085333-54.613333-44.629333-99.072-99.328-99.072zM595.2 182.016a49.749333 49.749333 0 1 1 0 99.498667h-49.749333v-49.834667c0-27.392 22.272-49.664 49.749333-49.664z m-216.064 49.664c0-27.392 22.272-49.749333 49.749333-49.749333s49.749333 22.357333 49.749334 49.749333v49.749333h-49.749334c-27.477333-0.085333-49.749333-22.357333-49.749333-49.749333zM186.368 380.416c0-17.749333 14.421333-32.170667 32.170667-32.170667h260.096V486.4H218.624c-17.749333 0-32.170667-14.421333-32.170667-32.170667l-0.085333-73.813333z m75.178667 394.581333V553.301333h217.002666v288.682667H328.448c-36.864 0-66.901333-29.952-66.901333-66.986667z m500.906666 0c0 36.949333-30.037333 66.986667-66.986666 66.986667H545.450667V553.301333h217.002666v221.696z m75.178667-320.768c0 17.749333-14.421333 32.170667-32.170667 32.170667H545.450667V348.330667h260.010666c17.749333 0 32.170667 14.421333 32.170667 32.170666v73.728z" fill="#5196ff" p-id="2615"></path></svg>