<?xml version="1.0" standalone="no"?><!DOCTYPE svg PUBLIC "-//W3C//DTD SVG 1.1//EN" "http://www.w3.org/Graphics/SVG/1.1/DTD/svg11.dtd"><svg t="1565753097082" class="icon" viewBox="0 0 1024 1024" version="1.1" xmlns="http://www.w3.org/2000/svg" p-id="1871" xmlns:xlink="http://www.w3.org/1999/xlink" width="200" height="200"><defs><style type="text/css"></style></defs><path d="M725.333333 981.333333H298.666667c-93.866667 0-170.666667-76.8-170.666667-170.666666V490.666667c0-46.933333 38.4-85.333333 85.333333-85.333334h597.333334c46.933333 0 85.333333 38.4 85.333333 85.333334v320c0 93.866667-76.8 170.666667-170.666667 170.666666zM213.333333 490.666667v320c0 46.933333 38.4 85.333333 85.333334 85.333333h426.666666c46.933333 0 85.333333-38.4 85.333334-85.333333V490.666667H213.333333z" fill="#5196ff" p-id="1872" data-spm-anchor-id="a313x.7781069.0.i15" class="selected"></path><path d="M810.666667 490.666667H213.333333v-149.333334c0-164.266667 134.4-298.666667 298.666667-298.666666s298.666667 134.4 298.666667 298.666666v149.333334z m-512-85.333334h426.666666v-64c0-117.333333-96-213.333333-213.333333-213.333333s-213.333333 96-213.333333 213.333333v64z" fill="#5196ff" p-id="1873" data-spm-anchor-id="a313x.7781069.0.i16" class="selected"></path><path d="M512 693.333333m-64 0a64 64 0 1 0 128 0 64 64 0 1 0-128 0Z" fill="#ff5941" p-id="1874" data-spm-anchor-id="a313x.7781069.0.i14" class=""></path></svg>