<?xml version="1.0" encoding="utf-8"?>
<!-- Generator: Adobe Illustrator 23.0.0, SVG Export Plug-In . SVG Version: 6.00 Build 0)  -->
<svg version="1.1" id="我的_x2014__x2014_选中_1_"
	 xmlns="http://www.w3.org/2000/svg" xmlns:xlink="http://www.w3.org/1999/xlink" x="0px" y="0px" viewBox="0 0 1024 1024"
	 style="enable-background:new 0 0 1024 1024;" xml:space="preserve">
<style type="text/css">
	.st0{fill-rule:evenodd;clip-rule:evenodd;fill:#5498FF;}
	.st1{fill:#5498FF;}
	.st2{fill-rule:evenodd;clip-rule:evenodd;fill:#FFFFFF;}
</style>
<g id="椭圆_2_拷贝">
	<g>
		<path class="st0" d="M694,772c-53.9,30-115.9,47-182,47c-66,0-128.1-17.1-182-47c-31.4,21.4-58,46.1-58,61.9v30
			c0,33.1,26.9,60,60,60h360c33.1,0,60-26.9,60-60v-30C752,818,725.4,793.4,694,772z"/>
	</g>
</g>
<g id="椭圆_2">
	<g>
		<circle class="st1" cx="512" cy="444" r="345.1"/>
	</g>
</g>
<g id="圆角矩形_6_拷贝">
	<g>
		<path class="st2" d="M408,324c-16.6,0-30,13.4-30,30v60c0,16.6,13.4,30,30,30c16.6,0,30-13.4,30-30v-60
			C438,337.4,424.6,324,408,324z M618,324c-16.6,0-30,13.4-30,30v60c0,16.6,13.4,30,30,30c16.6,0,30-13.4,30-30v-60
			C648,337.4,634.6,324,618,324z"/>
	</g>
</g>
<g id="椭圆_2_拷贝_2">
	<g>
		<path class="st2" d="M657,607c0-16.6-13.4-30-30-30c-10.7,0-20.1,5.6-25.4,14h-0.5c-22.5,21.1-52.8,34-86.1,34
			c-33.3,0-63.6-12.9-86.1-34h-0.5c-5.3-8.4-14.7-14-25.4-14c-16.6,0-30,13.4-30,30c0,7.5,2.8,14.4,7.4,19.7l-0.2,0.4
			C414,662.8,461.9,685,515,685c53,0,100.8-22.2,134.7-57.7l-0.2-0.5C654.2,621.5,657,614.6,657,607z"/>
	</g>
</g>
</svg>
