<?xml version="1.0" encoding="utf-8"?>
<!-- Generator: Adobe Illustrator 23.0.0, SVG Export Plug-In . SVG Version: 6.00 Build 0)  -->
<svg version="1.1" id="我的_x2014__x2014_未选中_1_"
	 xmlns="http://www.w3.org/2000/svg" xmlns:xlink="http://www.w3.org/1999/xlink" x="0px" y="0px" viewBox="0 0 1024 1024"
	 style="enable-background:new 0 0 1024 1024;" xml:space="preserve">
<style type="text/css">
	.st0{fill:#999999;}
</style>
<g id="圆角矩形_5">
	<g>
		<path class="st0" d="M427.9,788.8L427.9,788.8L427.9,788.8 M599.8,789.1c6.8,2,26.3,10.2,51.6,26.3c22.1,14,35.1,25.4,41.4,31.8
			v16.6H333.5v-16.6c6.3-6.4,19.3-17.8,41.4-31.8c25.3-16.1,44.8-24.3,51.6-26.3H599.8 M603.1,729.1H423.3
			c-33.1,0-149.8,71.8-149.8,104.9v30c0,33.1,26.8,59.9,59.9,59.9h359.5c33.1,0,59.9-26.8,59.9-59.9v-30
			C752.9,800.9,636.2,729.1,603.1,729.1L603.1,729.1z"/>
	</g>
</g>
<g id="椭圆_2">
	<g>
		<path class="st0" d="M513.2,160c38.5,0,75.7,7.5,110.8,22.3c33.9,14.3,64.3,34.9,90.5,61s46.7,56.6,61,90.5
			c14.8,35.1,22.3,72.3,22.3,110.8s-7.5,75.7-22.3,110.8c-14.3,33.9-34.9,64.3-61,90.5s-56.6,46.7-90.5,61
			c-35.1,14.8-72.3,22.3-110.8,22.3s-75.7-7.5-110.8-22.3c-33.9-14.3-64.3-34.9-90.5-61c-26.2-26.2-46.7-56.6-61-90.5
			c-14.8-35.1-22.3-72.3-22.3-110.8s7.5-75.7,22.3-110.8c14.3-33.9,34.9-64.3,61-90.5c26.2-26.2,56.6-46.7,90.5-61
			C437.4,167.5,474.7,160,513.2,160 M513.2,100c-190.4,0-344.7,154.3-344.7,344.7s154.3,344.7,344.7,344.7S857.9,635,857.9,444.7
			S703.5,100,513.2,100L513.2,100z"/>
	</g>
</g>
<g id="圆角矩形_6">
	<g>
		<path class="st0" d="M408,324c-16.6,0-30,13.4-30,30v60c0,16.6,13.4,30,30,30s30-13.4,30-30v-60C438,337.4,424.6,324,408,324
			L408,324z"/>
	</g>
</g>
<g id="圆角矩形_6_拷贝">
	<g>
		<path class="st0" d="M618,324c-16.6,0-30,13.4-30,30v60c0,16.6,13.4,30,30,30s30-13.4,30-30v-60C648,337.4,634.6,324,618,324
			L618,324z"/>
	</g>
</g>
</svg>
