<?xml version="1.0" encoding="utf-8"?>
<!-- Generator: Adobe Illustrator 23.0.0, SVG Export Plug-In . SVG Version: 6.00 Build 0)  -->
<svg version="1.1" id="图层_2" xmlns="http://www.w3.org/2000/svg" xmlns:xlink="http://www.w3.org/1999/xlink" x="0px" y="0px"
	 viewBox="0 0 200 200" style="enable-background:new 0 0 200 200;" xml:space="preserve">
<style type="text/css">
	.st0{fill:#1F91F2;}
	.st1{fill:#5196FF;}
	.st2{fill:#FF5941;}
</style>
<path class="st0" d="M28.8,63.1h142.4v14.5H28.8V63.1z"/>
<path class="st1" d="M168.9,36.6v111.5c0,9-7.3,16.3-16.3,16.3h0H47.5c-9,0-16.3-7.3-16.3-16.3l0,0V39h137.6 M164.1,24.5H36
	c-10.7,0-19.3,8.7-19.3,19.3c0,0,0,0,0,0v115.8c0,10.7,8.6,19.3,19.3,19.3c0,0,0,0,0,0h128.1c10.7,0,19.3-8.6,19.3-19.3V43.8
	C183.4,33.1,174.7,24.5,164.1,24.5L164.1,24.5z"/>
<path class="st2" d="M145.9,94.4H88v14.5h57.9V94.4z M66.3,89.6c-6.7,0-12.1,5.4-12.1,12.1c0,6.7,5.4,12.1,12.1,12.1
	s12.1-5.4,12.1-12.1l0,0C78.3,95,72.9,89.6,66.3,89.6z M112.1,128.2H54.2v14.5h57.9L112.1,128.2z M133.9,123.4
	c-6.7,0-12.1,5.4-12.1,12.1c0,6.7,5.4,12.1,12.1,12.1c6.7,0,12.1-5.4,12.1-12.1c0,0,0,0,0,0C145.9,128.8,140.5,123.4,133.9,123.4
	L133.9,123.4z"/>
</svg>
